<svg width="21" height="20" viewBox="0 0 21 20" fill="none" xmlns="http://www.w3.org/2000/svg">
<path d="M18.5567 18.3333L16.8901 16.6667M9.80674 17.5C10.8464 17.5 11.8758 17.2952 12.8363 16.8974C13.7968 16.4995 14.6695 15.9164 15.4047 15.1813C16.1398 14.4461 16.7229 13.5734 17.1208 12.6129C17.5186 11.6524 17.7234 10.623 17.7234 9.58333C17.7234 8.5437 17.5186 7.51425 17.1208 6.55376C16.7229 5.59326 16.1398 4.72053 15.4047 3.9854C14.6695 3.25027 13.7968 2.66714 12.8363 2.26929C11.8758 1.87144 10.8464 1.66667 9.80674 1.66667C7.70711 1.66667 5.69348 2.50074 4.20881 3.9854C2.72415 5.47007 1.89008 7.4837 1.89008 9.58333C1.89008 11.683 2.72415 13.6966 4.20881 15.1813C5.69348 16.6659 7.70711 17.5 9.80674 17.5Z" stroke="#5B5C5D" stroke-width="1.5" stroke-linecap="round" stroke-linejoin="round"/>
</svg>
