<svg width="24" height="24" viewBox="0 0 24 24" fill="none" xmlns="http://www.w3.org/2000/svg">
<path d="M16.96 6.17C18.96 7.56 20.3401 9.77 20.6201 12.32M3.49005 12.37C3.61577 11.1472 4.00216 9.9655 4.62316 8.90462C5.24416 7.84374 6.08535 6.92831 7.09005 6.22M8.19005 20.94C9.35005 21.53 10.67 21.86 12.06 21.86C13.4 21.86 14.66 21.56 15.79 21.01M12.06 7.7C12.7974 7.7 13.5045 7.40711 14.0258 6.88576C14.5472 6.36441 14.84 5.6573 14.84 4.92C14.84 4.1827 14.5472 3.47559 14.0258 2.95424C13.5045 2.43289 12.7974 2.14 12.06 2.14C11.3227 2.14 10.6156 2.43289 10.0943 2.95424C9.57294 3.47559 9.28005 4.1827 9.28005 4.92C9.28005 5.6573 9.57294 6.36441 10.0943 6.88576C10.6156 7.40711 11.3227 7.7 12.06 7.7ZM4.83005 19.92C5.56735 19.92 6.27445 19.6271 6.79581 19.1058C7.31716 18.5844 7.61005 17.8773 7.61005 17.14C7.61005 16.4027 7.31716 15.6956 6.79581 15.1742C6.27445 14.6529 5.56735 14.36 4.83005 14.36C4.09275 14.36 3.38564 14.6529 2.86429 15.1742C2.34294 15.6956 2.05005 16.4027 2.05005 17.14C2.05005 17.8773 2.34294 18.5844 2.86429 19.1058C3.38564 19.6271 4.09275 19.92 4.83005 19.92ZM19.17 19.92C19.9074 19.92 20.6145 19.6271 21.1358 19.1058C21.6572 18.5844 21.9501 17.8773 21.9501 17.14C21.9501 16.4027 21.6572 15.6956 21.1358 15.1742C20.6145 14.6529 19.9074 14.36 19.17 14.36C18.4327 14.36 17.7256 14.6529 17.2043 15.1742C16.6829 15.6956 16.39 16.4027 16.39 17.14C16.39 17.8773 16.6829 18.5844 17.2043 19.1058C17.7256 19.6271 18.4327 19.92 19.17 19.92Z" stroke="#434545" stroke-width="1.5" stroke-linecap="round" stroke-linejoin="round"/>
</svg>
