<svg width="21" height="20" viewBox="0 0 21 20" fill="none" xmlns="http://www.w3.org/2000/svg">
<path d="M18.5567 18.3333L16.8901 16.6666M9.80675 17.5C10.8464 17.5 11.8758 17.2952 12.8363 16.8973C13.7968 16.4995 14.6695 15.9164 15.4047 15.1812C16.1398 14.4461 16.7229 13.5734 17.1208 12.6129C17.5186 11.6524 17.7234 10.6229 17.7234 9.58329C17.7234 8.54366 17.5186 7.51421 17.1208 6.55372C16.7229 5.59322 16.1398 4.72049 15.4047 3.98536C14.6695 3.25023 13.7968 2.6671 12.8363 2.26925C11.8758 1.8714 10.8464 1.66663 9.80675 1.66663C7.70712 1.66663 5.69348 2.5007 4.20882 3.98536C2.72416 5.47003 1.89008 7.48366 1.89008 9.58329C1.89008 11.6829 2.72416 13.6966 4.20882 15.1812C5.69348 16.6659 7.70712 17.5 9.80675 17.5Z" stroke="#5B5C5D" stroke-width="1.5" stroke-linecap="round" stroke-linejoin="round"/>
</svg>
